<mxfile host="app.diagrams.net" agent="Mozilla/5.0 (Macintosh; Intel Mac OS X 10.15; rv:136.0) Gecko/20100101 Firefox/136.0" version="26.1.0">
  <diagram name="Page-1" id="1_ojuWxz8hACzrW00t5Y">
    <mxGraphModel dx="1716" dy="1150" grid="1" gridSize="10" guides="1" tooltips="1" connect="1" arrows="1" fold="1" page="1" pageScale="1" pageWidth="827" pageHeight="1169" math="0" shadow="0">
      <root>
        <mxCell id="0" />
        <mxCell id="1" parent="0" />
        <mxCell id="PQMCeA2h7M7xHc_bsMTg-6" value="loop" style="strokeWidth=2;html=1;shape=mxgraph.flowchart.start_1;whiteSpace=wrap;" vertex="1" parent="1">
          <mxGeometry x="590" y="30" width="100" height="60" as="geometry" />
        </mxCell>
        <mxCell id="PQMCeA2h7M7xHc_bsMTg-7" value="update" style="strokeWidth=2;html=1;shape=mxgraph.flowchart.start_1;whiteSpace=wrap;" vertex="1" parent="1">
          <mxGeometry x="310" y="30" width="100" height="60" as="geometry" />
        </mxCell>
        <mxCell id="PQMCeA2h7M7xHc_bsMTg-11" style="edgeStyle=orthogonalEdgeStyle;rounded=0;orthogonalLoop=1;jettySize=auto;html=1;exitX=0.5;exitY=1;exitDx=0;exitDy=0;exitPerimeter=0;entryX=0.5;entryY=0;entryDx=0;entryDy=0;" edge="1" parent="1" source="PQMCeA2h7M7xHc_bsMTg-8" target="PQMCeA2h7M7xHc_bsMTg-10">
          <mxGeometry relative="1" as="geometry" />
        </mxCell>
        <mxCell id="PQMCeA2h7M7xHc_bsMTg-8" value="Target &amp;gt; Current" style="strokeWidth=2;html=1;shape=mxgraph.flowchart.decision;whiteSpace=wrap;" vertex="1" parent="1">
          <mxGeometry x="300" y="150" width="120" height="100" as="geometry" />
        </mxCell>
        <mxCell id="PQMCeA2h7M7xHc_bsMTg-9" style="edgeStyle=orthogonalEdgeStyle;rounded=0;orthogonalLoop=1;jettySize=auto;html=1;exitX=0.5;exitY=1;exitDx=0;exitDy=0;exitPerimeter=0;entryX=0.5;entryY=0;entryDx=0;entryDy=0;entryPerimeter=0;" edge="1" parent="1" source="PQMCeA2h7M7xHc_bsMTg-7" target="PQMCeA2h7M7xHc_bsMTg-8">
          <mxGeometry relative="1" as="geometry" />
        </mxCell>
        <mxCell id="PQMCeA2h7M7xHc_bsMTg-10" value="set Moving = true&lt;span style=&quot;white-space: pre;&quot;&gt;&#x9;&lt;/span&gt;" style="rounded=1;whiteSpace=wrap;html=1;absoluteArcSize=1;arcSize=14;strokeWidth=2;" vertex="1" parent="1">
          <mxGeometry x="310" y="300" width="100" height="70" as="geometry" />
        </mxCell>
      </root>
    </mxGraphModel>
  </diagram>
</mxfile>
